<svg width="14" height="18" viewBox="0 0 14 18" fill="none" xmlns="http://www.w3.org/2000/svg">
<path d="M6.89415 8.67062C8.00464 8.67062 8.96623 8.24339 9.75192 7.40047C10.5376 6.55769 10.9359 5.52649 10.9359 4.33517C10.9359 3.14426 10.5376 2.11293 9.75179 1.26987C8.96597 0.427228 8.00451 0 6.89415 0C5.78354 0 4.8222 0.427228 4.03652 1.27001C3.25083 2.11279 2.85242 3.14413 2.85242 4.33517C2.85242 5.52649 3.25083 6.55783 4.03664 7.40061C4.82246 8.24325 5.78392 8.67062 6.89415 8.67062Z" fill="#E0E3ED"/>
<path d="M13.9661 13.8407C13.9434 13.49 13.8976 13.1074 13.8301 12.7034C13.762 12.2963 13.6743 11.9115 13.5693 11.5598C13.4609 11.1963 13.3134 10.8373 13.1311 10.4933C12.9419 10.1363 12.7196 9.82537 12.4702 9.56953C12.2094 9.30188 11.8902 9.08668 11.5209 8.92972C11.153 8.77357 10.7452 8.69447 10.3091 8.69447C10.1378 8.69447 9.97209 8.76987 9.65216 8.9933C9.45526 9.13104 9.22494 9.29034 8.96787 9.46653C8.74805 9.61677 8.45026 9.75753 8.08245 9.88497C7.72359 10.0095 7.35924 10.0727 6.99962 10.0727C6.63999 10.0727 6.27576 10.0095 5.91653 9.88497C5.5491 9.75767 5.25131 9.61691 5.03175 9.46667C4.77711 9.29212 4.54666 9.13282 4.34682 8.99316C4.02727 8.76973 3.86148 8.69434 3.69018 8.69434C3.25387 8.69434 2.84624 8.77357 2.47843 8.92985C2.10946 9.08654 1.79004 9.30174 1.529 9.56966C1.27973 9.82564 1.05736 10.1364 0.868391 10.4933C0.686212 10.8373 0.538727 11.1962 0.430163 11.56C0.32531 11.9117 0.237614 12.2963 0.169505 12.7034C0.102036 13.1068 0.0562028 13.4896 0.0335425 13.8411C0.0112662 14.1855 0 14.543 0 14.904C0 15.8436 0.278453 16.6043 0.827551 17.1653C1.36986 17.7188 2.08744 17.9997 2.96006 17.9997H11.0399C11.9126 17.9997 12.6299 17.719 13.1723 17.1653C13.7215 16.6047 14 15.8439 14 14.9039C13.9999 14.5412 13.9885 14.1835 13.9661 13.8407Z" fill="#E0E3ED"/>
</svg>
