<svg width="12" height="11" viewBox="0 0 12 11" fill="none" xmlns="http://www.w3.org/2000/svg">
<g clip-path="url(#clip0_25_316)">
<path d="M0 3.19824C4.00441 3.19824 7.99228 3.19824 11.9967 3.19824C11.9967 3.25986 11.9967 3.31499 11.9967 3.37336C11.9967 5.49748 11.9967 7.62159 11.9967 9.74571C11.9967 10.4462 11.4804 10.9715 10.759 10.9942C10.7093 10.9975 10.6597 10.9942 10.61 10.9942C7.45284 10.9942 4.29895 10.9845 1.14175 11.0007C0.337562 11.004 0 10.4754 0 9.87542C0.00330943 8.07884 0 6.28551 0 4.48893C0 4.06086 0 3.63604 0 3.19824ZM8.83618 4.5473C8.69719 4.5473 8.55488 4.5473 8.41588 4.5473C8.40927 4.5473 8.39934 4.5473 8.39272 4.5473C8.19746 4.55054 8.08163 4.65756 8.07501 4.84565C8.06839 5.144 8.06839 5.44559 8.07501 5.74394C8.07832 5.92878 8.18753 6.04229 8.37617 6.04553C8.69057 6.05202 9.00496 6.05202 9.31605 6.04553C9.508 6.03904 9.60066 5.93851 9.60397 5.75042C9.60728 5.45207 9.60728 5.15048 9.60397 4.85213C9.60066 4.66404 9.48483 4.55054 9.29288 4.5473C9.14396 4.5473 8.99173 4.5473 8.83618 4.5473ZM5.85108 9.34358C6.00331 9.34358 6.15554 9.34683 6.30778 9.34358C6.50303 9.34034 6.60894 9.25602 6.61224 9.06794C6.62217 8.75661 6.62217 8.44529 6.61224 8.13397C6.60894 7.95886 6.49972 7.85184 6.32432 7.84535C6.00662 7.83887 5.68891 7.83887 5.37121 7.84535C5.1925 7.8486 5.0866 7.96858 5.0866 8.14694C5.08329 8.44529 5.08329 8.74689 5.0866 9.04523C5.08991 9.22684 5.20574 9.3371 5.39106 9.34034C5.5433 9.34683 5.69884 9.34358 5.85108 9.34358ZM8.83949 9.34358C8.99173 9.34358 9.14396 9.34683 9.29619 9.34358C9.50138 9.34034 9.60066 9.24305 9.60397 9.04523C9.60728 8.75013 9.60728 8.45502 9.60397 8.15992C9.60397 7.96858 9.49476 7.85184 9.30281 7.8486C8.99173 7.84211 8.68395 7.84211 8.37286 7.8486C8.19084 7.85184 8.07832 7.9621 8.07501 8.14046C8.06839 8.44854 8.06839 8.75661 8.07501 9.06145C8.07832 9.23981 8.20077 9.34034 8.37948 9.34683C8.53502 9.34683 8.68726 9.34358 8.83949 9.34358ZM5.0866 5.29317C5.0866 5.4391 5.0866 5.58503 5.0866 5.73097C5.08991 5.92878 5.1925 6.04553 5.39437 6.04877C5.69884 6.05526 6.00662 6.05526 6.31109 6.04877C6.50965 6.04553 6.60894 5.95797 6.61224 5.76988C6.62217 5.45856 6.62217 5.14724 6.61224 4.83592C6.60894 4.65756 6.4898 4.55378 6.30778 4.55054C6.00331 4.5473 5.69553 4.5473 5.39106 4.55054C5.19912 4.55378 5.0866 4.66404 5.08329 4.85538C5.08329 5.00131 5.0866 5.14724 5.0866 5.29317ZM2.13458 8.59771C2.13458 8.74364 2.13127 8.88957 2.13458 9.03551C2.13789 9.22684 2.25041 9.34034 2.44236 9.34358C2.7369 9.34683 3.02813 9.34683 3.32267 9.34358C3.52454 9.34034 3.66023 9.22035 3.66685 9.01929C3.67347 8.72743 3.67347 8.43556 3.66685 8.1437C3.66354 7.95886 3.55102 7.84535 3.36238 7.84211C3.0513 7.83562 2.74352 7.83562 2.43243 7.84211C2.24379 7.84535 2.13789 7.9621 2.13458 8.14694C2.13127 8.29936 2.13458 8.44854 2.13458 8.59771ZM2.13458 5.29317C2.13458 5.44235 2.13127 5.59152 2.13458 5.74394C2.13789 5.9223 2.23718 6.04229 2.41919 6.04877C2.72697 6.0585 3.03806 6.0585 3.34914 6.04877C3.53116 6.04229 3.65692 5.92878 3.66354 5.75042C3.67347 5.4391 3.67347 5.12778 3.66023 4.81646C3.65361 4.65107 3.53116 4.55703 3.35907 4.55378C3.05461 4.55054 2.74683 4.55054 2.44236 4.55378C2.25041 4.55703 2.13789 4.67053 2.13458 4.85862C2.13127 5.00131 2.13458 5.14724 2.13458 5.29317Z" fill="#E0E3ED"/>
<path d="M11.9603 2.41624C7.97241 2.41624 3.99116 2.41624 0.0198442 2.41624C0.0198442 1.90061 -0.00332178 1.39472 0.0264631 0.892064C0.0496291 0.470483 0.400429 -0.0191981 1.06232 0.00350236C1.36016 0.0132311 1.65801 0.00674528 1.95586 0.00674528C1.99558 0.00674528 2.03529 0.00674528 2.09155 0.00674528C2.09155 0.104033 2.09155 0.188349 2.09155 0.272665C2.09155 0.528856 2.09155 0.781804 2.09155 1.038C2.09155 1.30391 2.23716 1.47255 2.46882 1.4693C2.69717 1.4693 2.83948 1.30391 2.83948 1.04448C2.83948 0.749375 2.83948 0.454269 2.83948 0.15592C2.83948 0.110519 2.83948 0.0683608 2.83948 0.0132311C4.83176 0.0132311 6.81742 0.0132311 8.813 0.0132311C8.81631 0.0553891 8.81962 0.10079 8.81962 0.142948C8.81962 0.457512 8.81631 0.775318 8.82293 1.08988C8.82624 1.27149 8.93214 1.40769 9.09431 1.45309C9.24323 1.49525 9.41863 1.44336 9.49806 1.30716C9.54439 1.22933 9.56425 1.13204 9.56756 1.04448C9.57748 0.746132 9.57087 0.44454 9.57087 0.146191C9.57087 0.104033 9.57087 0.0586321 9.57087 0.00350236C9.94152 0.00350236 10.2956 -0.00622641 10.6497 0.00674528C10.8251 0.0132311 11.0072 0.0424174 11.1693 0.104033C11.5764 0.262936 11.8643 0.535342 11.9537 0.973137C11.957 0.992594 11.9603 1.01205 11.9603 1.03475C11.9603 1.492 11.9603 1.94926 11.9603 2.41624Z" fill="#E0E3ED"/>
</g>
<defs>
<clipPath id="clip0_25_316">
<rect width="12" height="11" fill="white"/>
</clipPath>
</defs>
</svg>
