<svg width="15" height="11" viewBox="0 0 15 11" fill="none" xmlns="http://www.w3.org/2000/svg">
<path d="M8.75358 7.15495C8.3804 7.39855 7.94692 7.52732 7.5 7.52732C7.05311 7.52732 6.61963 7.39855 6.24645 7.15495L0.099873 3.1426C0.0657715 3.12034 0.0325488 3.09714 0 3.07327V9.64794C0 10.4017 0.624756 11 1.38085 11H13.6191C14.389 11 15 10.3883 15 9.64794V3.07324C14.9674 3.09717 14.9341 3.12043 14.8999 3.14272L8.75358 7.15495Z" fill="#E0E3ED"/>
<path d="M0.587402 2.42658L6.73397 6.43896C6.96665 6.59085 7.23331 6.66678 7.49997 6.66678C7.76666 6.66678 8.03335 6.59082 8.26603 6.43896L14.4126 2.42658C14.7804 2.18662 15 1.78502 15 1.35158C15 0.6063 14.3808 0 13.6196 0H1.38038C0.619248 2.86857e-05 0 0.606329 0 1.3523C0 1.78502 0.219609 2.18662 0.587402 2.42658Z" fill="#E0E3ED"/>
</svg>
