<svg width="26" height="55" viewBox="0 0 26 55" fill="none" xmlns="http://www.w3.org/2000/svg">
<g clip-path="url(#clip0_15_226)">
<path d="M25.9851 18.4757C25.9851 21.43 26 24.3843 25.9851 27.3533C25.9553 32.1008 22.7947 35.8194 18.0539 36.6866C17.7557 36.7454 17.4576 36.7895 17.1743 36.7895C14.0138 36.7454 10.8234 36.9658 7.69266 36.5837C3.35436 36.0546 0.0447243 32.0273 0.029816 27.7061C-0.0149087 21.6799 0.0149078 15.6537 0.0149078 9.62751C0.0149078 4.4538 3.74197 0.411846 8.97477 0.117885C11.8521 -0.0437929 14.7592 -0.0143968 17.6216 0.176677C22.0642 0.485336 25.8211 4.4391 25.9404 8.83381C26.0298 12.0527 25.9553 15.2568 25.9553 18.4757C25.9702 18.4757 25.9851 18.4757 25.9851 18.4757ZM24.1067 18.4904C24.1067 15.492 24.1365 12.5083 24.1067 9.50992C24.0619 5.15931 20.7672 1.94044 16.3693 1.91104C14.1181 1.89635 11.867 1.89635 9.60092 1.91104C5.21789 1.95514 1.90826 5.2181 1.90826 9.55402C1.89335 15.492 1.89335 21.4153 1.90826 27.3533C1.92316 31.6892 5.26261 34.9669 9.67546 34.9816C11.9117 34.9816 14.1479 34.9963 16.3842 34.9816C16.9209 34.9816 17.4725 34.9375 17.9943 34.8199C21.6766 34.0556 24.0917 31.1013 24.1216 27.3239C24.1216 24.3696 24.1067 21.43 24.1067 18.4904Z" fill="#E0E3ED"/>
<path d="M12.0608 51.987C12.0608 49.7823 12.0608 47.754 12.0608 45.711C12.0608 44.3882 12.0608 43.0653 12.0608 41.7425C12.0608 40.9488 12.4186 40.5079 13.0149 40.5226C13.5963 40.5373 13.9392 40.9635 13.9392 41.7278C13.9392 44.9026 13.9392 48.0774 13.9392 51.2521C13.9392 51.4432 13.9392 51.649 13.9392 51.9723C14.1927 51.7519 14.3417 51.6343 14.4908 51.502C15.6239 50.5172 16.7569 49.5325 17.8899 48.5624C18.4415 48.0921 18.9782 48.0921 19.3658 48.5477C19.7385 48.9886 19.664 49.5178 19.1124 49.9881C17.3085 51.5608 15.5046 53.1188 13.7156 54.6915C13.2385 55.103 12.7466 55.103 12.2695 54.6915C10.4656 53.1188 8.67661 51.5608 6.87271 49.9881C6.52982 49.6941 6.29128 49.3561 6.42546 48.8857C6.61927 48.1949 7.42431 48.0039 8.03555 48.533C9.12385 49.4443 10.1972 50.3849 11.2706 51.3256C11.5092 51.5167 11.7179 51.7078 12.0608 51.987Z" fill="#E0E3ED"/>
<path d="M12.0608 12.2142C12.0608 11.4793 12.0459 10.7444 12.0608 10.0095C12.0757 9.37747 12.4335 8.98062 12.9702 8.98062C13.5069 8.96592 13.9094 9.36277 13.9243 9.98009C13.9392 11.4793 13.9392 12.9932 13.9243 14.4924C13.9243 15.1244 13.5367 15.4918 12.9851 15.4918C12.4186 15.4918 12.0757 15.1244 12.0608 14.4777C12.0459 13.7281 12.0608 12.9785 12.0608 12.2142Z" fill="#E0E3ED"/>
</g>
<defs>
<clipPath id="clip0_15_226">
<rect width="26" height="55" fill="white"/>
</clipPath>
</defs>
</svg>
