<svg width="48" height="48" viewBox="0 0 48 48" fill="none" xmlns="http://www.w3.org/2000/svg">
<g clip-path="url(#clip0_27_2369)">
<path d="M23.9921 47.9841C16.2378 47.9841 8.49949 47.9841 0.74528 48C0.142704 48 -0.0158691 47.8414 -0.0158691 47.2388C0.0158454 31.7463 0.0158454 16.2537 -1.18557e-05 0.76115C-1.18557e-05 0.158573 0.142704 0 0.761138 0C16.2537 0.0158573 31.7463 0.0158573 47.2547 0C47.8573 0 48.0158 0.142716 48.0158 0.76115C48 16.2537 48 31.7463 48.0158 47.2547C48.0158 47.8573 47.8731 48.0159 47.2547 48.0159C39.5005 47.9683 31.7463 47.9841 23.9921 47.9841ZM24.0555 12.781C23.2626 12.7651 22.7076 13.0981 22.3112 13.7483C21.4708 15.112 20.6303 16.4757 19.774 17.8394C16.8087 22.6283 13.8434 27.4014 10.9098 32.1903C10.6561 32.6026 10.4658 33.1576 10.5292 33.6174C10.6878 34.9812 11.9722 35.6472 13.225 35.0922C16.6501 33.5382 20.0753 31.9841 23.4846 30.4143C23.8493 30.2398 24.1506 30.224 24.5312 30.3984C27.9564 31.9524 31.3816 33.4906 34.8226 35.0129C36.0753 35.5679 37.3915 34.8385 37.4866 33.4906C37.5183 32.999 37.3122 32.4281 37.0585 32C35.6789 29.7166 34.2517 27.449 32.8404 25.1814C30.4935 21.4232 28.1467 17.6492 25.8156 13.891C25.3716 13.225 24.8484 12.781 24.0555 12.781Z" fill="#F37A53"/>
</g>
<defs>
<clipPath id="clip0_27_2369">
<rect width="48" height="48" rx="6" fill="white"/>
</clipPath>
</defs>
</svg>
