<svg width="20" height="16" viewBox="0 0 20 16" fill="none" xmlns="http://www.w3.org/2000/svg">
<path d="M19.8095 1.89247C19.0667 2.21198 18.299 2.43318 17.4819 2.53149C18.3238 2.03994 18.9676 1.25346 19.2648 0.294931C18.4724 0.761905 17.6057 1.08141 16.6895 1.27803C15.9467 0.491552 14.8819 0 13.7181 0C11.4648 0 9.65714 1.81874 9.65714 4.03072C9.65714 4.35023 9.68191 4.64516 9.75619 4.94009C6.38857 4.79263 3.41714 3.17051 1.41143 0.737327C-0.0247618 3.29339 1.58476 5.40707 2.64952 6.11982C2.00571 6.11982 1.3619 5.9232 0.817143 5.62826C0.817143 7.61905 2.22857 9.26575 4.06095 9.63441C3.66476 9.7573 2.77333 9.83103 2.22857 9.70814C2.74857 11.3057 4.25905 12.4854 6.01714 12.51C4.63048 13.5914 2.6 14.4516 0 14.1813C1.80762 15.3364 3.93714 16 6.24 16C13.7181 16 17.779 9.85561 17.779 4.54685C17.779 4.37481 17.779 4.20277 17.7543 4.03072C18.5962 3.41628 19.2895 2.70353 19.8095 1.89247Z" fill="white"/>
</svg>
