<svg width="17" height="16" viewBox="0 0 17 16" fill="none" xmlns="http://www.w3.org/2000/svg">
<path d="M12.0975 0H4.75963C2.37144 0 0.428574 1.94287 0.428574 4.33105V11.6691C0.428574 14.0571 2.37144 16 4.75963 16H12.0976C14.4857 16 16.4286 14.0571 16.4286 11.6691V4.33105C16.4286 1.94287 14.4857 0 12.0975 0V0ZM8.42857 12.3749C6.01622 12.3749 4.0537 10.4124 4.0537 8C4.0537 5.58765 6.01622 3.62512 8.42857 3.62512C10.8409 3.62512 12.8035 5.58765 12.8035 8C12.8035 10.4124 10.8409 12.3749 8.42857 12.3749ZM12.9081 4.65686C12.1952 4.65686 11.6153 4.07703 11.6153 3.36414C11.6153 2.65125 12.1952 2.07129 12.9081 2.07129C13.621 2.07129 14.2009 2.65125 14.2009 3.36414C14.2009 4.07703 13.621 4.65686 12.9081 4.65686Z" fill="white"/>
<path d="M8.42857 4.56348C6.53355 4.56348 4.99168 6.10522 4.99168 8.00037C4.99168 9.89539 6.53355 11.4373 8.42857 11.4373C10.3237 11.4373 11.8655 9.89539 11.8655 8.00037C11.8655 6.10522 10.3237 4.56348 8.42857 4.56348Z" fill="white"/>
<path d="M12.9081 3.00977C12.7125 3.00977 12.5533 3.16895 12.5533 3.3645C12.5533 3.56006 12.7125 3.71924 12.9081 3.71924C13.1037 3.71924 13.2629 3.56018 13.2629 3.3645C13.2629 3.16882 13.1037 3.00977 12.9081 3.00977Z" fill="white"/>
</svg>
