<svg width="23" height="16" viewBox="0 0 23 16" fill="none" xmlns="http://www.w3.org/2000/svg">
<path d="M22.4338 2.50362C22.1704 1.52463 21.3984 0.752899 20.4193 0.489286C18.6307 0 11.4759 0 11.4759 0C11.4759 0 4.32149 0 2.53284 0.470736C1.5726 0.734069 0.78172 1.52477 0.518327 2.50362C0.0476227 4.29172 0.0476227 8 0.0476227 8C0.0476227 8 0.0476227 11.727 0.518327 13.4964C0.781999 14.4752 1.55376 15.247 2.53298 15.5106C4.34032 16 11.4762 16 11.4762 16C11.4762 16 18.6307 16 20.4193 15.5293C21.3985 15.2658 22.1704 14.4941 22.4341 13.5152C22.9047 11.727 22.9047 8.01883 22.9047 8.01883C22.9047 8.01883 22.9235 4.29172 22.4338 2.50362ZM9.19803 11.4258V4.57416L15.1475 8L9.19803 11.4258Z" fill="white"/>
</svg>
