<svg width="9" height="16" viewBox="0 0 9 16" fill="none" xmlns="http://www.w3.org/2000/svg">
<path d="M2.33344 8.60123C2.27511 8.60123 0.991714 8.60123 0.408353 8.60123C0.0972269 8.60123 0 8.4868 0 8.20073C0 7.43787 0 6.65594 0 5.89308C0 5.58794 0.116672 5.49258 0.408353 5.49258H2.33344C2.33344 5.43537 2.33344 4.32922 2.33344 3.81429C2.33344 3.05143 2.46956 2.32672 2.85847 1.65922C3.26682 0.972644 3.85018 0.514929 4.58911 0.247929C5.07524 0.0762857 5.56138 0 6.0864 0H7.99205C8.26428 0 8.38095 0.114429 8.38095 0.381429V2.55558C8.38095 2.82258 8.26428 2.937 7.99205 2.937C7.46702 2.937 6.942 2.937 6.41697 2.95608C5.89195 2.95608 5.61971 3.20401 5.61971 3.73801C5.60027 4.31015 5.61971 4.86322 5.61971 5.45444H7.87537C8.1865 5.45444 8.30317 5.56887 8.30317 5.87401V8.18166C8.30317 8.4868 8.20595 8.58216 7.87537 8.58216C7.17534 8.58216 5.67805 8.58216 5.61971 8.58216V14.7995C5.61971 15.1237 5.52248 15.2381 5.17247 15.2381C4.35576 15.2381 3.5585 15.2381 2.7418 15.2381C2.45012 15.2381 2.33344 15.1237 2.33344 14.8376C2.33344 12.8351 2.33344 8.65844 2.33344 8.60123Z" fill="white"/>
</svg>
