<svg width="45" height="36" viewBox="0 0 45 36" fill="none" xmlns="http://www.w3.org/2000/svg">
<g clip-path="url(#clip0_4_53)">
<path d="M45 17.6193C45.1934 26.2881 38.9622 34.1111 30.5618 35.6898C22.5069 37.198 14.5072 32.9553 11.2189 25.4424C11.0255 24.9913 10.9149 24.5121 11.2742 24.1597C11.5228 23.92 11.9235 23.765 12.2689 23.7509C12.7525 23.7368 12.9874 24.1456 13.1808 24.5684C13.9545 26.3727 15.0184 28.0077 16.4415 29.3468C20.9318 33.5896 26.182 34.985 31.9987 33.068C37.8707 31.1229 41.4768 26.866 42.5407 20.6499C44.0328 11.9811 38.2714 3.848 29.7881 2.41025C22.9214 1.24032 16.1375 4.91926 13.167 11.4455C12.9874 11.8402 12.7801 12.263 12.338 12.2912C11.9926 12.3053 11.5781 12.1785 11.3156 11.967C10.9426 11.671 10.9702 11.1918 11.1498 10.7548C11.8544 9.11973 12.7525 7.59741 13.9407 6.27243C18.7765 0.902033 24.7451 -1.14182 31.6533 0.662408C38.4786 2.45254 42.7203 7.11816 44.4611 14.0955C44.7651 15.2231 44.8342 16.4353 45 17.6193Z" fill="#E0E3ED"/>
<path d="M30.4652 19.0995C30.1336 19.0995 29.954 19.0995 29.7605 19.0995C23.3774 19.0995 16.9804 19.0995 10.5972 19.0995C9.63004 19.0995 9.11884 18.733 9.11884 18.0282C9.11884 17.3234 9.63004 16.9429 10.5834 16.9429C16.9665 16.9429 23.3635 16.9429 29.7467 16.9429C29.9401 16.9429 30.1198 16.9429 30.4375 16.9429C30.2717 16.7173 30.1474 16.5623 30.0369 16.4072C28.821 14.9413 27.6052 13.4894 26.3755 12.0235C26.0439 11.6147 25.9472 11.1778 26.2235 10.7126C26.4584 10.3039 26.8315 10.1065 27.2736 10.2052C27.5361 10.2757 27.8262 10.4307 28.0058 10.6422C29.8711 12.8411 31.7086 15.0541 33.56 17.2671C33.9745 17.7745 33.9607 18.2819 33.5324 18.7894C31.7086 20.9742 29.8849 23.159 28.0611 25.3438C27.5775 25.9076 26.9558 26.0204 26.4722 25.6116C25.9748 25.1887 25.9472 24.5404 26.4446 23.9342C27.619 22.5247 28.7934 21.1151 29.9678 19.7056C30.1059 19.5505 30.2441 19.3673 30.4652 19.0995Z" fill="#E0E3ED"/>
<path d="M1.05003 19.0853C0.469741 19.0853 -0.0138327 18.5919 -1.62985e-05 18.014C-1.63243e-05 17.422 0.483557 16.9428 1.06385 16.9568C1.64413 16.9568 2.12771 17.4502 2.11389 18.0281C2.11389 18.606 1.64413 19.0994 1.05003 19.0853Z" fill="#E0E3ED"/>
<path d="M5.84433 19.0853C5.26404 19.0994 4.78047 18.6201 4.76665 18.0422C4.75284 17.4643 5.2226 16.9568 5.80288 16.9568C6.38317 16.9427 6.86675 17.422 6.88056 17.9999C6.9082 18.5778 6.42462 19.0853 5.84433 19.0853Z" fill="#E0E3ED"/>
</g>
<defs>
<clipPath id="clip0_4_53">
<rect width="36" height="45" fill="white" transform="translate(0 36) rotate(-90)"/>
</clipPath>
</defs>
</svg>
