<svg width="45" height="41" viewBox="0 0 45 41" fill="none" xmlns="http://www.w3.org/2000/svg">
<path d="M0.487366 38.5269C4.06992 32.0817 7.64107 25.6482 11.2236 19.203C12.8894 16.2101 14.5552 13.2055 16.2324 10.2126C16.3008 10.083 16.3807 9.9652 16.4834 9.78845C16.5746 9.94163 16.6545 10.0595 16.723 10.1773C18.0579 12.5928 19.3928 15.0083 20.7391 17.412C20.8874 17.683 20.876 17.8715 20.7277 18.1307C16.723 25.3419 12.7297 32.553 8.74779 39.7759C8.57665 40.0823 8.3941 40.1883 8.05181 40.1883C6.11221 40.1765 4.17261 40.153 2.23301 40.1883C1.44576 40.2001 0.852467 39.9762 0.487366 39.2221C0.487366 38.9983 0.487366 38.7626 0.487366 38.5269Z" fill="#F37A53"/>
<path d="M44.2996 39.2338C43.9459 39.9879 43.3412 40.2 42.5539 40.2C32.3996 40.1882 22.2452 40.1882 12.1022 40.1882C11.9196 40.1882 11.7371 40.1882 11.4975 40.1882C11.5888 39.9997 11.6344 39.8701 11.7029 39.7522C13.0264 37.3603 14.3499 34.9802 15.6619 32.5882C15.8103 32.3172 15.97 32.2347 16.2666 32.2347C24.2989 32.2465 32.3197 32.2465 40.3519 32.2347C40.6486 32.2347 40.8083 32.329 40.9566 32.5882C41.9721 34.4028 42.9989 36.1938 44.0144 37.9966C44.117 38.1733 44.2083 38.3501 44.2996 38.5268C44.2996 38.7625 44.2996 38.9981 44.2996 39.2338Z" fill="#F37A53"/>
<path d="M39.2452 29.5836C36.3358 29.5836 33.4949 29.5954 30.6539 29.5718C30.4942 29.5718 30.2774 29.348 30.1862 29.1712C27.6989 24.6937 25.2231 20.2162 22.7358 15.7269C21.2069 12.9697 19.6895 10.2125 18.1492 7.45534C18.0123 7.19612 17.9781 7.00759 18.1378 6.73658C19.1647 4.92202 20.1687 3.08388 21.1841 1.25753C21.7888 0.173507 23.0096 0.161725 23.6029 1.24575C28.76 10.5542 33.9056 19.8627 39.0627 29.1712C39.1197 29.2891 39.1654 29.4069 39.2452 29.5836Z" fill="#F37A53"/>
<path d="M22.3935 20.4399C24.0935 23.5153 25.7479 26.5081 27.4365 29.5599C24.0479 29.5599 20.7391 29.5599 17.3505 29.5599C19.0277 26.5199 20.6935 23.5153 22.3935 20.4399Z" fill="#F37A53"/>
</svg>
